Patient4_TMGait_0pt4_01_right_16_EMG.mot
version=1
nRows=40
nColumns=33
inDegrees=no
endheader
time	1LAddLong	2LGlutMax	3LGlutMed	4LIliopsoas	5LSemiMemb	6LBicFemLong	7LRecFem	8LVastMed	9LVastLat	10LGasMed	11LTibAnt	12lTibPost	13LPeroneusLong	14LSol	15LExtDigLong	16LFlexDigLong	17RAddLong	18RGlutMax	19RGlutMed	20RIliopsoas	21RSemiMemb	22RBicFemLong	23RRecFem	24RVastMed	25RVastLat	26RGasMed	27RTibAnt	28RTibPost	29RPeroneusLong	30RSol	31RExtDigLong	32RFlexDigLong
22.018	0.003967	0.004883	0.064087	0.009308	-0.032959	0.13382	0.029144	0.009003	0.009766	0.075531	0.066528	0.007019	-0.094604	-0.004578	0.069885	-0.00885	0.037079	-0.005341	-0.33234	0.13001	-0.088348	-0.015717	0.025787	-0.11856	0.042725	-0.007935	0.64377	-0.002289	-0.066376	-0.074615	0.000153	0.005798
22.019	0.00351	-0.01358	0.11871	-0.001221	-0.02655	0.10819	0.032959	-0.006104	0.030365	-0.019531	-0.020752	-0.005341	-0.036926	-0.021057	-0.02243	-0.02182	-0.018768	0.072632	-0.41321	0.1033	-0.061646	0.024261	0.020599	-0.12451	0.042114	-0.010681	-0.23956	-0.002289	-0.066223	-0.067596	-0.001678	0.013733
22.02	-0.000305	-0.007782	0.1506	-0.016937	0.022278	0.083466	0.06546	0.003815	0.020752	-0.10437	-0.12756	-0.005341	-0.009766	-0.050964	-0.087891	0.08255	-0.093994	0.037689	-0.067291	0.010223	-0.082855	0.12756	0.033569	-0.12665	0.040588	-0.019684	-0.8194	-0.002441	-0.059509	-0.042114	0.000763	0.011597
22.021	0.004883	-0.009613	0.12756	-0.007172	0.045624	0.036469	0.087128	0.006256	0.037231	0.10346	-0.074158	0.010529	-0.035248	-0.04837	-0.026855	-0.026398	-0.16373	-0.023041	0.41748	-0.13519	-0.095062	0.25009	0.042877	-0.096283	0.045471	-0.016022	0.16419	0.000153	0.068817	-0.049286	-0.001373	0.022278
22.022	0.006104	0	0.11826	-0.003967	0.020752	0.097809	0.069733	0.007477	0.045929	-0.088501	-0.006561	0.002594	-0.050964	-0.05722	-0.000305	0.19501	-0.18478	0.009766	0.76996	-0.15457	-0.065002	0.30762	-0.00824	0.055389	0.054932	-0.016785	0.86655	-0.000153	0.074921	-0.087128	0.00351	0.018921
22.023	0.011139	-0.005341	0.074921	0.012054	0.023804	0.070496	0.037384	0.008545	0.070801	-0.23361	-0.005493	0.012817	-0.005341	-0.073547	-0.014343	-0.51163	-0.13245	0.009003	0.36667	-0.16724	0.020905	0.28625	-0.02182	0.056458	0.06134	-0.015106	0.68054	-0.000305	0.40131	-0.17151	0	0.01709
22.024	0.004272	0.006714	0.06073	0.005493	0.054474	0.044708	0.001373	0.008545	0.20187	-0.18356	0.024872	0.013428	0.055695	0.006561	0.024567	0.17059	-0.13504	-0.007172	-0.18051	-0.069885	0.068207	0.28244	-0.017548	0.059509	0.04425	-0.006714	-0.24551	-0.002899	0.76736	-0.14969	-0.004272	0.027618
22.025	0.007172	-0.006561	0.044708	0.007629	0.055695	0.003357	-0.06485	0.007629	0.29083	-0.088501	0.011444	0.016022	0.14145	0.040588	-0.005951	0.22873	-0.11932	-0.033875	-0.18112	0.026093	0.090027	0.28732	0.00061	0.11292	0.028534	-0.010376	-0.7843	-0.002899	0.27481	-0.15167	-0.005188	0.031738
22.026	0.009003	0.005493	0.071106	0.007782	0.033569	-0.004425	-0.090637	-0.002747	0.1828	0.014038	-0.010986	0.00885	0.099487	0.12726	-0.023499	0.00946	-0.10727	-0.013733	-0.075836	-0.019836	0.13321	0.28641	-0.046387	0.10513	0.010071	0.002136	-0.65521	-0.001526	-0.066071	-0.18295	0.001984	0.040588
22.027	0.003204	0.009613	0.094452	0.00412	0.035248	0.025635	-0.04364	-0.000763	0.049133	0.055084	-0.01236	0.000153	0.037537	0.23987	-0.015411	-0.12787	-0.075073	-0.055084	-0.030212	-0.089874	0.062561	0.18387	0.017242	0.062103	0.010376	0.005188	-0.28381	-0.004578	-0.11078	-0.074463	-0.001678	0.054779
22.028	-0.000458	0.006866	0.072327	0.002899	0.039368	0.013733	0.000458	-0.000763	0.051422	0.027008	-0.027313	0.005646	0.051727	0.14236	-0.014648	0.23773	-0.059052	-0.004578	0.073395	-0.11673	-0.007935	0.19409	0.012054	0.030212	0.009613	-0.001373	-0.10941	-0.000916	-0.2739	0.019684	-0.000763	0.066528
22.029	0.004425	-0.017395	0.076599	0.003815	0.036774	0.007782	0.027313	0.004883	-0.026703	-0.011597	-0.006714	0.016022	0.073242	-0.004578	-0.015717	0.063782	-0.044556	-0.051727	0.093689	-0.084381	-0.02243	0.24292	0.036011	-0.012817	-0.005035	-0.004425	-0.21774	-0.010223	-0.20569	0.025177	-0.002441	0.076599
22.03	-0.007477	-0.045319	0.056458	0.005798	0.019684	0.015869	0.10605	0.004425	-0.39887	0.006256	0.001831	0.015564	0.012207	-0.027924	-0.003204	0.059052	-0.042419	-0.029449	0.03891	0.075989	-0.009766	0.27893	0.031738	-0.020599	-0.010834	-0.015717	-0.345	-0.003662	-0.10895	0.043945	-0.001678	0.081329
22.031	-0.006561	-0.028839	0.039063	0.014648	0.016174	0.019684	0.13458	0.002289	-0.34302	0.005951	0.00885	-0.016632	-0.029144	0.039368	-0.00946	-0.010529	-0.014343	-0.034485	0.14435	0.07843	-0.1152	0.3183	0.027924	-0.06424	0.008392	-0.020142	-0.271	-0.004425	-0.13016	0.12268	-0.006104	0.11871
22.032	-0.00351	-0.037842	-0.000458	0.014496	0.021362	0.032196	0.1091	0.015106	-0.22217	0.020905	-0.048981	-0.022736	-0.015106	-0.12573	0.0354	0.007782	-0.00061	-0.031586	0.19898	0.040588	-0.26398	0.2739	0.042877	-0.11459	-0.005035	-0.012817	-0.17303	-0.000916	-0.17883	0.1033	-0.003967	0.14771
22.033	-0.005798	-0.05661	-0.057373	0.017242	0.023346	0.040588	0.15671	0.019836	-0.18417	0.036163	-0.045929	0.006256	-0.03067	-0.23239	0.098877	0.009766	0.002747	-0.04837	0.15015	0.082245	-0.36819	0.30975	0.036621	-0.10788	-0.019226	0.000458	-0.022583	-0.00351	-0.12909	-0.00946	-0.00061	0.18707
22.034	0.000763	-0.051575	-0.079498	0.009308	0.020752	0.024872	0.066681	0.022278	-0.19745	0.03418	-0.066681	0.012512	-0.031281	-0.1239	0.47623	-0.017548	-0.003052	-0.069122	-0.032349	0.034485	-0.1712	0.38177	-0.003967	-0.066071	0.004883	0.004272	0.11551	-0.004578	0.010681	0.019226	-0.001526	-0.21072
22.035	-0.001526	-0.034485	-0.077667	0.000916	0.017548	0.079956	0.029755	0.028839	-0.18799	0.010529	-0.043793	0.007782	-0.035858	0.046844	0.16266	-0.011292	0.015106	-0.054169	-0.18967	0.027771	0.27863	0.38025	0.020905	-0.052643	0.007172	0.00351	0.044861	-0.003204	0.033722	0.050049	0.001984	-0.2475
22.036	0.003052	-0.041351	0.051575	-0.018921	0.021515	0.076141	-0.01297	0.019836	-0.15808	-0.01236	-0.00351	0.006104	-0.067444	0.095062	0.040436	-0.00824	0.004425	-0.030212	0.025024	-0.009308	0.29755	0.38269	-0.038605	-0.029449	0.016022	0.011139	0.10132	-0.00412	-0.177	0.013123	-0.007477	-0.16434
22.037	0.002899	-0.039825	0.006561	-0.011444	0.02533	-0.029907	0.013275	0.016022	-0.093994	-0.028687	0.091858	-0.047455	-0.035553	0.087585	-0.009918	-0.00946	-0.00885	-0.091248	-0.065155	0.002899	0.20767	0.35065	-0.027008	0.032196	0.027466	0.005646	0.15152	-0.002899	-0.12558	0.009613	0.001526	-0.12512
22.038	0.005798	-0.05661	-0.041504	-0.00473	0.021057	-0.042572	-0.093842	0.00946	-0.079956	0.03006	0.11002	0.1741	0.062256	0.13947	-0.003052	-0.006409	0.006409	-0.044098	-0.14923	-0.02594	-0.011597	0.27222	-0.062256	-0.002136	0.016174	0.008698	0.15884	0	-0.010376	0.004883	0.001526	-0.11749
22.039	0.005188	-0.04715	0.011292	0.000153	0.019989	-0.002594	-0.1648	0.008087	-0.022125	0.16083	0.22797	-0.021667	0.071564	0.059967	-0.2829	-0.016174	0.023499	-0.072784	0.034637	-0.075989	-0.099487	0.26276	-0.03067	-0.053406	0.005493	0.009766	0.042267	-0.002289	-0.19333	-0.029602	0.009918	-0.11871
22.04	0.001984	-0.039978	0.17273	-0.000153	0.017548	0.005493	-0.093384	-0.012665	-0.001831	0.22903	0.034637	-0.022278	0.044403	-0.081787	0.47485	-0.004883	0.047913	-0.029907	0.04425	0.012512	-0.13916	0.22614	-0.042267	-0.077362	0.005798	0.005035	-0.18051	-0.000305	0.034027	-0.004578	0.000458	-0.10178
22.041	0.008087	-0.050201	0.039368	-0.016785	0.010529	0.007324	0.026093	-0.03418	0.045013	0.21713	-0.036926	-0.002899	-0.003662	-0.064545	0.36957	-0.005035	0.10284	-0.078278	-0.079193	0.10117	-0.04837	0.24429	0.001526	-0.052643	0.014801	-0.003662	-0.18967	-0.00412	0.39032	0.044098	-0.000458	-0.11017
22.042	0.000763	-0.081024	0.045929	-0.003052	0.019531	-0.004272	0.15366	-0.020752	-0.032654	0.008392	0.037689	0.004425	-0.040283	0.07431	-0.17807	-0.000305	0.14023	-0.05661	-0.074615	0.062561	0.12802	0.19669	0.024261	-0.14816	0.009308	-0.002289	-0.043793	-0.00351	-0.13504	0.018463	-0.001678	-0.087738
22.043	0.004578	-0.084991	0.045166	0.036011	0.018158	-0.010071	0.13565	-0.007019	-0.026855	-0.2475	0.25436	0.010681	-0.038757	0.10849	-0.11337	0.003357	0.11246	-0.071564	-0.11841	-0.022278	0.093842	0.1619	0.005646	-0.14206	-0.020599	0.000763	0.017242	-0.003052	-0.28412	-0.010834	-0.001068	-0.054016
22.044	0.006104	-0.090637	0.03006	0.014343	0.014496	-0.036163	0.028992	0.000458	0.12466	-0.20828	0.24551	0.004272	-0.046234	0.15518	-0.23178	-0.00351	0.048828	-0.059052	-0.15213	-0.053101	0.13672	0.18875	0.010223	-0.20065	-0.007782	0.000153	0.20157	-0.006104	-0.088654	-0.036011	-0.002136	-0.080414
22.045	0.005341	-0.040436	0.04364	-0.002899	0.016327	-0.046234	-0.090332	-0.009003	0.27786	-0.11948	-0.21164	0.000153	0.046387	0.14984	-0.37705	-0.007172	0.069427	-0.058289	-0.11185	-0.020142	-0.041504	0.23132	0.000305	-0.22034	-0.00824	-0.002899	0.2388	-0.002899	-0.085144	-0.003357	0.000305	-0.053406
22.046	0.007324	-0.077362	0.063629	0.005341	0.017395	-0.035095	-0.19424	-0.010071	0.14725	-0.066986	-0.26718	-0.001984	0.05127	0.086212	-0.73502	-0.014191	0.11368	-0.078583	-0.12192	0.021515	-0.12268	0.2417	0.01358	-0.19653	-0.011749	-0.003662	0.24796	-0.00351	-0.10376	0.063324	-0.001984	-0.066986
22.047	0.006714	-0.063782	0.06546	-0.004272	0.017548	-0.020905	-0.050354	-0.009918	0.065002	-0.039215	-0.20416	0.001678	0.038757	0.02655	-0.58655	-0.0177	0.053864	-0.071411	-0.16022	0.01709	-0.026855	0.26794	0.013275	-0.1059	0.015564	-0.004272	0.22537	-0.005035	0.016327	0.05249	-0.002136	-0.057678
22.048	-0.002594	-0.039368	0.020752	0.00824	0.014954	0.00946	-0.006561	0.002594	0.032349	0.012817	-0.17319	0.001831	-0.032654	-0.07019	-0.019379	-0.015106	0.006714	-0.08728	-0.17731	-0.02533	-0.037079	0.32547	-0.010223	-0.015869	0.016632	-0.007172	0.23071	-0.006256	-0.060577	-0.007629	-0.000458	-0.068054
22.049	0.000458	-0.041504	0.033264	0.004883	0.011292	0.032654	0.011292	-0.002594	0.007324	0.037384	-0.11993	0.003357	-0.056458	-0.1918	0.26184	0.000458	-0.060425	-0.0737	-0.11917	-0.051575	-0.21469	0.4921	-0.039215	-0.015564	0.039825	-0.00946	0.30487	-0.004272	-0.16419	-0.06958	0.000153	-0.053101
22.05	0.009003	-0.015717	0.010986	-0.015106	0.009918	0.043488	0.021667	0.006561	0.028229	-0.005646	-0.098572	0.004272	0.03479	-0.11169	-0.19119	0.012207	-0.06134	-0.026855	-0.14679	-0.058899	-0.12878	0.55328	-0.042114	0.054779	0.03006	-0.001678	-0.095367	-0.005341	-0.15411	-0.098114	0.000916	-0.042419
22.051	-0.006104	-0.044403	0.014954	-0.000763	0.014191	0.009003	0.054474	0.004883	0.014343	-0.049133	-0.053864	0.010223	0.13718	0.035248	-0.092468	0.006866	-0.059509	-0.074615	-0.028229	-0.036011	-0.018463	0.51941	-0.04776	0.061188	0.028687	-0.007629	-0.22476	-0.002136	-0.16602	-0.10681	0	-0.043793
22.052	-0.00473	-0.023956	0.009155	-0.014801	0.006256	-0.006104	0.066223	0.019836	-0.012512	-0.019379	0.15167	0.00412	0.080566	-0.019989	0.298	0.011902	-0.061188	-0.040741	0.05661	-0.065002	-0.054932	0.52033	-0.022125	0.018311	0.019684	-0.007324	0.12955	-0.006409	-0.046234	-0.12314	-0.007019	-0.050964
22.053	-0.006256	-0.017853	-0.042877	0.004425	0.011749	-0.007935	0.10361	0.007477	0.006561	0.019379	0.1767	0.000305	-0.05127	0.010529	0.36774	0.003357	-0.040741	-0.066833	-0.037689	-0.019531	0.1059	0.44128	-0.030518	-0.011749	0.034637	0.003662	0.19226	-0.001678	0.074615	-0.0737	-0.000458	-0.047302
22.054	0.005646	-0.000763	-0.037842	0.009308	0.016327	-0.025024	0.063477	-0.004578	0.053406	-0.013275	0.014191	0.005646	-0.006256	0.019531	-0.35919	0.000458	-0.032196	-0.068359	-0.24933	-0.014801	0.10117	0.35049	-0.045624	0.021362	0.026398	0	0.13504	-0.00473	0.089874	0.02594	-0.003967	-0.050201
22.055	-0.003967	0.020752	-0.044403	0.00351	0.018463	-0.010071	0.074005	-0.005341	0.12711	0.019684	-0.26886	0.005188	-0.00351	-0.081024	-0.2945	0.016785	-0.01709	-0.018005	0.020142	0.03006	-0.003967	0.30975	-0.028839	-0.027313	0.013275	0	0.14603	-0.003662	0.068207	0.042572	-0.000763	-0.048828
22.056	0.005188	-0.008698	0.023346	-0.000305	0.01358	0.066223	-0.003357	0.000153	0.13779	0.016174	-0.14053	0.007019	-0.015411	-0.1622	-0.046234	0.016022	-0.00473	-0.046387	0.44266	0.053101	-0.048523	0.25238	-0.035248	-0.007477	0.01709	-0.003052	-0.041199	-0.00412	0.09079	0.075989	-0.001526	-0.043335
22.057	0.001526	0.02533	-0.022736	0	0.016632	0.055847	-0.057068	0.000305	0.10422	0.045166	-0.055695	0.002899	-0.038452	-0.17029	0.16892	0.001373	-0.011597	-0.031281	0.13596	0.082855	0.040588	0.18753	-0.040436	0.016022	0.023499	0.003662	-0.31387	-0.000305	0.13947	0.070953	-0.007172	-0.042114
